<svg width="24" height="24" viewBox="0 0 24 24" fill="none" xmlns="http://www.w3.org/2000/svg">
<path d="M23 12.25V10.25C23 8.72996 22.02 7.74999 20.5 7.74999H9C7.47998 7.74999 6.50002 8.73 6.50002 10.25V12.2343L1.635 12.245H0.999984V3.76496C0.999984 3.51497 0.819984 3.28997 0.574969 3.25496C0.264984 3.20996 0 3.44996 0 3.74996V20.235C0 20.4849 0.18 20.7099 0.425016 20.745C0.735 20.79 1.00003 20.55 1.00003 20.25V17.25H23V20.235C23 20.4849 23.18 20.7099 23.425 20.745C23.735 20.79 24 20.55 24 20.25V13.25C24 12.57 23.68 12.255 23 12.25ZM7.5 10.25C7.5 8.94497 8.43998 8.74997 9 8.74997H20.5C21.06 8.74997 22 8.94497 22 10.25V12.25H7.5V10.25ZM23 16.25H0.999984V13.25H23V16.25Z" fill="#12181D"/>
<path d="M3.77344 6.67969C2.23955 6.67969 0.996094 7.92314 0.996094 9.45703C0.996094 10.9909 2.23955 12.2344 3.77344 12.2344C5.30733 12.2344 6.55078 10.9909 6.55078 9.45703C6.55078 7.92314 5.30733 6.67969 3.77344 6.67969ZM3.77344 11.3438C2.73145 11.3438 1.88672 10.499 1.88672 9.45703C1.88672 8.41505 2.73145 7.57031 3.77344 7.57031C4.81542 7.57031 5.66016 8.41505 5.66016 9.45703C5.66016 10.499 4.81547 11.3438 3.77344 11.3438Z" fill="#12181D"/>
</svg>
