<svg width="24" height="24" viewBox="0 0 24 24" fill="none" xmlns="http://www.w3.org/2000/svg">
<path d="M5.41047 11.04C4.64374 10.9273 3.87172 10.854 3.09747 10.8205C2.75797 10.7995 2.31047 10.9765 2.23297 11.8325C2.21851 12.0477 2.23929 12.2639 2.29447 12.4725C2.3459 12.6902 2.46184 12.8875 2.62714 13.0383C2.79243 13.1891 2.9994 13.2866 3.22097 13.318L6.53047 13.784C6.547 13.7867 6.56372 13.788 6.58047 13.788C6.64512 13.788 6.70868 13.7714 6.76499 13.7396C6.8213 13.7079 6.86845 13.6621 6.90185 13.6067C6.93526 13.5514 6.9538 13.4884 6.95566 13.4237C6.95752 13.3591 6.94264 13.2951 6.91247 13.238C5.82397 11.1675 5.54497 11.0815 5.41047 11.04ZM3.32547 12.5755C3.25277 12.5643 3.18508 12.5317 3.13115 12.4817C3.07722 12.4316 3.03954 12.3666 3.02297 12.295C2.98809 12.1665 2.97358 12.0334 2.97997 11.9005C2.98116 11.7866 3.00691 11.6744 3.05547 11.5715H3.06597C3.92097 11.625 4.88247 11.7025 5.14297 11.7485C5.42449 12.1251 5.67625 12.5232 5.89597 12.939L3.32547 12.5755Z" fill="#12181D"/>
<path d="M20.7803 10.8205C20.006 10.8541 19.234 10.9273 18.4673 11.04C18.3328 11.0815 18.0533 11.1675 16.9633 13.24C16.9331 13.2972 16.9182 13.3612 16.9201 13.4258C16.9219 13.4904 16.9405 13.5535 16.9739 13.6088C17.0073 13.6641 17.0544 13.7099 17.1107 13.7417C17.1671 13.7734 17.2306 13.7901 17.2953 13.79C17.312 13.7901 17.3287 13.7887 17.3453 13.786L20.6548 13.32C20.8763 13.2887 21.0833 13.1912 21.2486 13.0404C21.4139 12.8895 21.5298 12.6923 21.5813 12.4745C21.6363 12.2659 21.6571 12.0498 21.6428 11.8345C21.5668 10.9765 21.1168 10.8 20.7803 10.8205ZM20.8548 12.295C20.8382 12.3667 20.8005 12.4317 20.7466 12.4817C20.6927 12.5317 20.625 12.5644 20.5523 12.5755L17.9818 12.9375C18.2016 12.5219 18.4532 12.1239 18.7343 11.747C18.9993 11.7005 19.9618 11.623 20.8163 11.57C20.8708 11.6716 20.8988 11.7852 20.8978 11.9005C20.9042 12.0334 20.8897 12.1666 20.8548 12.295Z" fill="#12181D"/>
<path d="M17.131 11.389C17.0932 11.335 17.0419 11.2919 16.9822 11.264C16.9226 11.2361 16.8566 11.2244 16.791 11.23C16.7565 11.233 13.312 11.53 11.941 11.53C10.57 11.53 7.12497 11.23 7.09097 11.23C7.02531 11.2242 6.95928 11.2358 6.89956 11.2637C6.83985 11.2916 6.78855 11.3348 6.75086 11.3889C6.71317 11.443 6.69042 11.506 6.68491 11.5717C6.67939 11.6374 6.69132 11.7034 6.71947 11.763L7.70697 13.8585C7.73585 13.9194 7.78054 13.9714 7.83639 14.0091C7.89224 14.0469 7.95719 14.0689 8.02447 14.073L11.939 14.297L15.8595 14.073C15.9268 14.069 15.9918 14.047 16.0476 14.0093C16.1035 13.9715 16.1482 13.9194 16.177 13.8585L17.1645 11.763C17.1924 11.7032 17.204 11.6371 17.1981 11.5714C17.1922 11.5058 17.1691 11.4428 17.131 11.389ZM15.592 13.339L11.94 13.55L8.28997 13.339L7.67447 12.033C8.75397 12.121 10.894 12.283 11.9415 12.283C12.989 12.283 15.1295 12.121 16.2095 12.033L15.592 13.339Z" fill="#12181D"/>
<path d="M22.8439 18.6856C22.7444 18.6856 22.649 18.7251 22.5787 18.7954C22.5084 18.8657 22.4689 18.9611 22.4689 19.0606V20.6176C22.4689 20.6527 22.4549 20.6864 22.4301 20.7112C22.4052 20.7361 22.3715 20.7501 22.3364 20.7501H20.3884C20.3532 20.7501 20.3195 20.7361 20.2947 20.7112C20.2698 20.6864 20.2559 20.6527 20.2559 20.6176V19.9756C20.2559 19.8761 20.2164 19.7807 20.146 19.7104C20.0757 19.6401 19.9803 19.6006 19.8809 19.6006C19.7814 19.6006 19.686 19.6401 19.6157 19.7104C19.5454 19.7807 19.5059 19.8761 19.5059 19.9756V20.6176C19.5061 20.8515 19.5992 21.0758 19.7646 21.2413C19.9301 21.4067 20.1544 21.4998 20.3884 21.5001H22.3384C22.5723 21.4998 22.7966 21.4067 22.9621 21.2413C23.1275 21.0758 23.2206 20.8515 23.2209 20.6176V19.0606C23.2209 19.0111 23.2111 18.9622 23.1921 18.9166C23.1732 18.871 23.1454 18.8295 23.1103 18.7947C23.0753 18.7598 23.0337 18.7322 22.988 18.7135C22.9423 18.6948 22.8933 18.6853 22.8439 18.6856Z" fill="#12181D"/>
<path d="M3.96986 19.6C3.8704 19.6 3.77502 19.6396 3.70469 19.7099C3.63437 19.7802 3.59486 19.8756 3.59486 19.975V20.617C3.59486 20.6521 3.58097 20.6857 3.55623 20.7106C3.53149 20.7354 3.49791 20.7494 3.46286 20.7495H1.51286C1.4778 20.7494 1.44423 20.7354 1.41949 20.7106C1.39475 20.6857 1.38086 20.6521 1.38086 20.617V19.0605C1.38086 18.9611 1.34135 18.8657 1.27102 18.7954C1.2007 18.7251 1.10532 18.6855 1.00586 18.6855C0.906403 18.6855 0.81102 18.7251 0.740694 18.7954C0.670368 18.8657 0.630859 18.9611 0.630859 19.0605V20.6175C0.630991 20.8513 0.723805 21.0755 0.888953 21.2409C1.0541 21.4063 1.27811 21.4995 1.51186 21.5H3.46186C3.69579 21.4998 3.92005 21.4067 4.08541 21.2412C4.25078 21.0758 4.34373 20.8515 4.34386 20.6175V19.9755C4.34399 19.8762 4.30468 19.7808 4.23455 19.7104C4.16443 19.64 4.06923 19.6003 3.96986 19.6Z" fill="#12181D"/>
<path d="M23.1535 6.92751L21.9035 6.71151C21.7209 6.67781 21.5322 6.70734 21.3686 6.79523C21.205 6.88312 21.0762 7.02413 21.0035 7.19501L20.936 7.34501L20.05 5.25501C19.8497 4.77579 19.5301 4.35584 19.1215 4.03515C18.7129 3.71446 18.2291 3.50372 17.716 3.42301C15.8042 3.13277 13.8727 2.99135 11.939 3.00001C10.0053 2.99151 8.07381 3.1331 6.162 3.42351C5.64898 3.50417 5.16514 3.71484 4.75659 4.03543C4.34803 4.35603 4.02835 4.77588 3.828 5.25501L2.939 7.34701L2.876 7.20001C2.80384 7.02839 2.67539 6.88646 2.51181 6.79758C2.34822 6.7087 2.15925 6.67817 1.976 6.71101L0.726 6.92751C0.523146 6.96115 0.338822 7.06571 0.205865 7.22256C0.072908 7.37942 -4.59302e-05 7.57838 2.16947e-08 7.78401V8.02951C0.000187287 8.22745 0.0677112 8.41943 0.191473 8.57391C0.315234 8.72838 0.487869 8.83615 0.681 8.87951L1.868 9.14751L1.342 9.95001C0.886231 10.6434 0.643732 11.4552 0.6445 12.285V16.55C0.6445 18.1595 1.7655 19.2 3.5015 19.2H20.3765C22.1125 19.2 23.2335 18.16 23.2335 16.55V12.283C23.2343 11.4532 22.9918 10.6414 22.536 9.94801L22.01 9.14801L23.193 8.88101C23.3867 8.83818 23.56 8.73065 23.6844 8.57615C23.8089 8.42165 23.877 8.22938 23.8775 8.03101V7.78551C23.8781 7.57989 23.8056 7.38075 23.673 7.2236C23.5404 7.06646 23.3563 6.96152 23.1535 6.92751ZM0.8425 8.14551C0.816181 8.13959 0.792669 8.12487 0.77585 8.10378C0.759031 8.08268 0.749912 8.05649 0.75 8.02951V7.78401C0.749593 7.75568 0.759522 7.72818 0.777928 7.70664C0.796334 7.68511 0.821956 7.67102 0.85 7.66701L2.1055 7.45001C2.12311 7.44684 2.14127 7.45016 2.15663 7.45935C2.17198 7.46854 2.18348 7.48299 2.189 7.50001L2.4955 8.19301L2.3085 8.47801L0.8425 8.14551ZM22.4835 15.385H2.345C2.24554 15.385 2.15016 15.4245 2.07984 15.4948C2.00951 15.5652 1.97 15.6606 1.97 15.76C1.97 15.8595 2.00951 15.9548 2.07984 16.0252C2.15016 16.0955 2.24554 16.135 2.345 16.135H22.4835V16.55C22.4835 17.739 21.696 18.45 20.3765 18.45H3.5015C2.182 18.45 1.3945 17.7395 1.3945 16.55V12.283C1.39398 11.5993 1.5937 10.9305 1.969 10.359L3.151 8.55601H19.5115C19.611 8.55601 19.7063 8.5165 19.7767 8.44617C19.847 8.37585 19.8865 8.28046 19.8865 8.18101C19.8865 8.08155 19.847 7.98617 19.7767 7.91584C19.7063 7.84552 19.611 7.80601 19.5115 7.80601H3.5605L4.5185 5.55001C4.66928 5.18805 4.91032 4.87078 5.21861 4.62848C5.5269 4.38619 5.89216 4.22697 6.2795 4.16601C8.15235 3.88073 10.0446 3.74164 11.939 3.75001C13.8334 3.74115 15.7256 3.87973 17.5985 4.16451C17.986 4.22561 18.3514 4.38506 18.6597 4.62762C18.968 4.87019 19.2089 5.18777 19.3595 5.55001L20.4555 8.13351C20.464 8.15418 20.4746 8.17394 20.487 8.19251L21.909 10.361C22.2843 10.9325 22.484 11.6013 22.4835 12.285V15.385ZM23.1275 8.02951C23.1275 8.05702 23.118 8.08369 23.1006 8.10501C23.0832 8.12632 23.059 8.14098 23.032 8.14651L21.571 8.47651L21.384 8.19151L21.6925 7.49151C21.6994 7.47635 21.7112 7.46391 21.7259 7.45613C21.7407 7.44835 21.7576 7.44567 21.774 7.44851L23.027 7.66551C23.055 7.66952 23.0807 7.68361 23.0991 7.70514C23.1175 7.72668 23.1274 7.75418 23.127 7.78251L23.1275 8.02951Z" fill="#12181D"/>
</svg>
