<svg width="24" height="24" viewBox="0 0 24 24" fill="none" xmlns="http://www.w3.org/2000/svg">
<g clip-path="url(#clip0_133_157)">
<path d="M22.8 12.8H22.4V4.40005C22.4 2.40003 20.8 0.800049 18.8 0.800049C17.0295 0.800049 15.7562 2.11283 15.6137 4.03635C14.6842 4.21203 14 5.01256 14 6.00003C14 6.24003 14.16 6.40002 14.4 6.40002H17.6C17.84 6.40002 18 6.24003 18 6.00003C18 5.02349 17.3309 4.22961 16.4172 4.04221C16.5367 2.77114 17.3001 1.60002 18.8 1.60002C20.36 1.60002 21.6 2.84 21.6 4.4V12.8H9.56133C9.38039 11.8775 8.58267 11.2 7.60003 11.2C7.20005 10.72 6.64003 10.4 6.00005 10.4C5.24006 10.4 4.56005 10.84 4.24003 11.48C3.92002 11.32 3.56002 11.2 3.20002 11.2C2.21738 11.2 1.41966 11.8775 1.23872 12.8H1.2C0.519984 12.8 0 13.32 0 14C0 14.68 0.519984 15.2 1.2 15.2H1.6807L2.76 19.48C3.08002 20.72 4.2 21.6 5.48002 21.6H5.80003L5.28005 22.6401C5.16005 22.8401 5.24006 23.0801 5.44003 23.16C5.48002 23.2 5.56003 23.2 5.60002 23.2C5.76 23.2 5.88 23.12 5.96002 23L6.66 21.6H17.76L18.44 22.96C18.52 23.12 18.64 23.2 18.8 23.2C18.88 23.2 18.92 23.2 18.96 23.12C19.12 23.04 19.2 22.8 19.12 22.6L18.6189 21.5979C19.8573 21.5539 20.9283 20.689 21.24 19.52L22.3294 15.2H22.8C23.48 15.2 24 14.68 24 14C24 13.32 23.48 12.8 22.8 12.8ZM17.16 5.60005H14.88C15.04 5.12005 15.52 4.80003 16.04 4.80003C16.56 4.80003 17 5.12005 17.16 5.60005ZM3.20002 12C3.56002 12 3.88003 12.16 4.16002 12.44C4.24003 12.56 4.40002 12.6 4.56 12.56C4.71998 12.5201 4.8 12.4001 4.83998 12.24C4.95998 11.64 5.43998 11.2 6.03998 11.2C6.48 11.2 6.87998 11.4 7.08 11.8C7.16002 11.96 7.35998 12.04 7.52002 12C7.56 12 7.60003 12 7.64002 12C8.16 12 8.60002 12.32 8.76 12.8H2.07998C2.24002 12.32 2.67998 12 3.20002 12ZM20.52 19.2801C20.28 20.16 19.48 20.8001 18.56 20.8001H5.52C4.59998 20.8001 3.80002 20.1601 3.56002 19.2801L2.52 15.2001H21.48L20.52 19.2801ZM22.8 14.4H22H2.00002H1.2C0.96 14.4 0.800016 14.2401 0.800016 14.0001C0.800016 13.76 0.96 13.6001 1.2 13.6001H1.59998H9.19997H22.8C23.04 13.6001 23.2 13.76 23.2 14.0001C23.2 14.2401 23.04 14.4 22.8 14.4Z" fill="#12181D"/>
<path d="M14.4 8.20006C14.64 8.20006 14.8 8.04007 14.8 7.80007V7.60006C14.8 7.36006 14.64 7.20007 14.4 7.20007C14.16 7.20007 14 7.36006 14 7.60006V7.80007C14 8.04007 14.16 8.20006 14.4 8.20006Z" fill="#12181D"/>
<path d="M14.4 10.04C14.64 10.04 14.8 9.84002 14.8 9.64005V9.20003C14.8 8.96003 14.64 8.80005 14.4 8.80005C14.16 8.80005 14 8.96003 14 9.20003V9.64005C14 9.88 14.16 10.04 14.4 10.04Z" fill="#12181D"/>
<path d="M14.4 11.6001C14.64 11.6001 14.8 11.4401 14.8 11.2001V11.0001C14.8 10.7601 14.64 10.6001 14.4 10.6001C14.16 10.6001 14 10.7601 14 11.0001V11.2001C14 11.4401 14.16 11.6001 14.4 11.6001Z" fill="#12181D"/>
<path d="M15.9996 8.20006C16.2396 8.20006 16.3996 8.04007 16.3996 7.80007V7.60006C16.3996 7.36006 16.2396 7.20007 15.9996 7.20007C15.7596 7.20007 15.5996 7.36006 15.5996 7.60006V7.80007C15.5996 8.04007 15.7596 8.20006 15.9996 8.20006Z" fill="#12181D"/>
<path d="M15.5996 9.64005C15.5996 9.88005 15.7596 10.04 15.9996 10.04C16.2396 10.04 16.3996 9.84002 16.3996 9.64005V9.20003C16.3996 8.96003 16.2396 8.80005 15.9996 8.80005C15.7596 8.80005 15.5996 8.96003 15.5996 9.20003V9.64005Z" fill="#12181D"/>
<path d="M15.5996 11.2C15.5996 11.44 15.7596 11.6 15.9996 11.6C16.2396 11.6 16.3996 11.44 16.3996 11.2V11C16.3996 10.76 16.2396 10.6 15.9996 10.6C15.7596 10.6 15.5996 10.76 15.5996 11V11.2Z" fill="#12181D"/>
<path d="M17.5992 8.20006C17.8392 8.20006 17.9992 8.04007 17.9992 7.80007V7.60006C17.9992 7.36006 17.8392 7.20007 17.5992 7.20007C17.3592 7.20007 17.1992 7.36006 17.1992 7.60006V7.80007C17.1992 8.04007 17.3592 8.20006 17.5992 8.20006Z" fill="#12181D"/>
<path d="M17.1992 9.64005C17.1992 9.88005 17.3592 10.04 17.5992 10.04C17.8392 10.04 17.9992 9.84006 17.9992 9.64005V9.20003C17.9992 8.96003 17.8392 8.80005 17.5992 8.80005C17.3592 8.80005 17.1993 8.96003 17.1993 9.20003V9.64005H17.1992Z" fill="#12181D"/>
<path d="M17.1992 11.2C17.1992 11.44 17.3592 11.6 17.5992 11.6C17.8392 11.6 17.9992 11.44 17.9992 11.2V11C17.9992 10.76 17.8392 10.6 17.5992 10.6C17.3592 10.6 17.1992 10.76 17.1992 11V11.2Z" fill="#12181D"/>
</g>
<defs>
<clipPath id="clip0_133_157">
<rect width="24" height="24" fill="white"/>
</clipPath>
</defs>
</svg>
