<svg width="62" height="51" viewBox="0 0 62 51" fill="none" xmlns="http://www.w3.org/2000/svg">
<path d="M50.1279 3.11129C48.3896 1.40155 46.0761 0.375826 43.6227 0.227146C41.1694 0.0784665 38.7453 0.817085 36.8069 2.304C35.0369 0.951016 32.8592 0.216363 30.6176 0.215935C28.376 0.215508 26.1982 0.949333 24.4275 2.30164C22.4081 0.742709 19.8601 0.000856698 17.3036 0.227536C14.7471 0.454214 12.375 1.63233 10.6715 3.52136C8.96793 5.4104 8.06149 7.86789 8.1372 10.3921C8.21291 12.9164 9.26505 15.3171 11.0788 17.1039L17.2731 23.1989C17.2779 23.2035 17.2827 23.2079 17.2881 23.2127C17.2935 23.2174 17.295 23.2196 17.2984 23.223C17.3049 23.2293 17.3118 23.2351 17.3182 23.2414C17.4167 23.3373 17.5166 23.4307 17.6181 23.5217C17.6703 23.5687 17.723 23.6143 17.7761 23.6602C17.8192 23.6971 17.8625 23.7336 17.9059 23.7698C19.6717 25.2417 21.8985 26.0711 24.2124 26.1183C26.5264 26.1657 28.7862 25.4282 30.6126 24.0295C32.5511 25.5164 34.9751 26.2551 37.4284 26.1064C39.8818 25.9577 42.1953 24.932 43.9336 23.2222L50.128 17.1281C52.0146 15.268 53.074 12.7474 53.074 10.1197C53.074 7.49191 52.0144 4.97147 50.1279 3.11129ZM30.6156 2.7974C32.0884 2.79647 33.5283 3.22543 34.7531 4.02996C35.978 4.83449 36.9326 5.97842 37.4963 7.31699C38.06 8.65556 38.2074 10.1286 37.9198 11.5496C37.6323 12.9706 36.9227 14.2757 35.8808 15.2998L30.6156 20.4797L25.3503 15.2998C24.3085 14.2757 23.5989 12.9706 23.3113 11.5496C23.0237 10.1285 23.1711 8.6555 23.7348 7.31693C24.2986 5.97835 25.2533 4.83441 26.4781 4.0299C27.703 3.22538 29.1429 2.79644 30.6156 2.7974ZM16.9749 16.214C16.9722 15.2516 17.1636 14.2982 17.538 13.4091C17.9123 12.5199 18.4623 11.7127 19.1559 11.034L20.5573 9.65529C20.4894 11.0334 20.7155 12.4102 21.2209 13.6972C21.7263 14.9842 22.4999 16.1528 23.492 17.1281L28.6495 22.2023C27.537 22.9688 26.232 23.4203 24.8767 23.5074C23.5215 23.5944 22.1678 23.3138 20.9635 22.6961C19.7592 22.0782 18.7503 21.1472 18.047 20.004C17.3436 18.861 16.9726 17.5498 16.9746 16.2136L16.9749 16.214ZM12.9369 15.2755C11.6189 13.9792 10.8431 12.2437 10.7626 10.4119C10.682 8.58014 11.3027 6.78524 12.5019 5.38181C13.7012 3.97837 15.3918 3.06845 17.2398 2.83178C19.0879 2.59511 20.9589 3.04892 22.4834 4.10355L17.2975 9.20555C16.3591 10.1238 15.6152 11.216 15.1087 12.419C14.6022 13.622 14.3433 14.9119 14.347 16.214C14.347 16.3677 14.3506 16.5209 14.3579 16.6735L12.9369 15.2755ZM36.8104 23.5395C35.289 23.5431 33.8037 23.0846 32.5571 22.2267L37.7399 17.1281C38.732 16.1528 39.5055 14.9842 40.0109 13.6972C40.5163 12.4102 40.7424 11.0334 40.6746 9.65529L42.076 11.034C43.1174 12.0586 43.8264 13.3639 44.1137 14.7849C44.4011 16.2059 44.2535 17.6789 43.6898 19.0175C43.1262 20.3561 42.1718 21.5001 40.9473 22.3051C39.7227 23.11 38.2831 23.5395 36.8104 23.5395ZM48.2698 15.2998L46.8735 16.6735C46.8806 16.521 46.8842 16.3679 46.8845 16.214C46.8881 14.9119 46.6292 13.622 46.1227 12.419C45.6162 11.216 44.8721 10.1238 43.9338 9.20555L38.7515 4.10694C40.2787 3.0614 42.1484 2.61627 43.9925 2.85916C45.8366 3.10204 47.5215 4.01537 48.7154 5.41929C49.9093 6.82322 50.5256 8.61601 50.4432 10.4447C50.3607 12.2734 49.5854 14.0054 48.2698 15.2998Z" fill="#025595"/>
<path d="M7.13922 34.4363C5.37582 34.4363 4.05754 34.8387 3.1844 35.6433C2.32838 36.4309 1.90037 37.5779 1.90037 39.0845V41.6012H10.4777V43.2448H1.90037V50.8719H0V39.0588C0 37.09 0.616336 35.5491 1.84901 34.4363C3.08168 33.3064 4.8194 32.7414 7.06218 32.7414C9.23648 32.7414 10.9828 33.2122 12.301 34.1538L11.6077 35.7204C10.4435 34.8643 8.95399 34.4363 7.13922 34.4363Z" fill="#12181D"/>
<path d="M19.0181 51.0003C17.8026 51.0003 16.861 50.6579 16.1933 49.9731C15.5427 49.2883 15.2174 48.3381 15.2174 47.1226V31.8169H17.0407V46.9685C17.0407 47.7731 17.229 48.3895 17.6057 48.8175C17.9823 49.2284 18.5473 49.4338 19.3006 49.4338C19.78 49.4338 20.1909 49.3568 20.5333 49.2027L20.6617 50.7179C20.131 50.9062 19.5831 51.0003 19.0181 51.0003Z" fill="#12181D"/>
<path d="M28.4128 51.0003C27.1117 51.0003 25.9389 50.7093 24.8946 50.1272C23.8502 49.528 23.0285 48.7062 22.4292 47.6619C21.83 46.6175 21.5304 45.4362 21.5304 44.1179C21.5304 42.7997 21.83 41.6183 22.4292 40.574C23.0285 39.5297 23.8502 38.7164 24.8946 38.1343C25.9389 37.5522 27.1117 37.2612 28.4128 37.2612C29.714 37.2612 30.8867 37.5522 31.9311 38.1343C32.9754 38.7164 33.7887 39.5297 34.3707 40.574C34.97 41.6183 35.2696 42.7997 35.2696 44.1179C35.2696 45.4362 34.97 46.6175 34.3707 47.6619C33.7887 48.7062 32.9754 49.528 31.9311 50.1272C30.8867 50.7093 29.714 51.0003 28.4128 51.0003ZM28.4128 49.3825C29.3716 49.3825 30.2276 49.1685 30.9809 48.7404C31.7513 48.2953 32.3505 47.6704 32.7785 46.8658C33.2066 46.0611 33.4206 45.1452 33.4206 44.1179C33.4206 43.0907 33.2066 42.1748 32.7785 41.3701C32.3505 40.5654 31.7513 39.9491 30.9809 39.5211C30.2276 39.076 29.3716 38.8534 28.4128 38.8534C27.4541 38.8534 26.5895 39.076 25.8191 39.5211C25.0658 39.9491 24.4666 40.5654 24.0214 41.3701C23.5934 42.1748 23.3794 43.0907 23.3794 44.1179C23.3794 45.1452 23.5934 46.0611 24.0214 46.8658C24.4666 47.6704 25.0658 48.2953 25.8191 48.7404C26.5895 49.1685 27.4541 49.3825 28.4128 49.3825Z" fill="#12181D"/>
<path d="M40.7383 40.009C41.1664 39.1016 41.7998 38.4168 42.6387 37.9546C43.4947 37.4923 44.5476 37.2612 45.7974 37.2612V39.0332L45.3609 39.0075C43.9399 39.0075 42.827 39.4441 42.0224 40.3172C41.2177 41.1903 40.8154 42.4144 40.8154 43.9895V50.8719H38.9921V37.3639H40.7383V40.009Z" fill="#12181D"/>
<path d="M61.3001 37.3639V50.8719H59.5538V48.2012C59.006 49.1085 58.2784 49.8019 57.371 50.2813C56.4807 50.7607 55.4706 51.0003 54.3407 51.0003C53.0737 51.0003 51.9267 50.7093 50.8995 50.1272C49.8722 49.5451 49.0676 48.7319 48.4855 47.6875C47.9034 46.6432 47.6123 45.4533 47.6123 44.1179C47.6123 42.7825 47.9034 41.5927 48.4855 40.5483C49.0676 39.504 49.8722 38.6993 50.8995 38.1343C51.9267 37.5522 53.0737 37.2612 54.3407 37.2612C55.4364 37.2612 56.4208 37.4923 57.2939 37.9546C58.1842 38.3997 58.9118 39.0588 59.4768 39.932V37.3639H61.3001ZM54.4947 49.3825C55.4364 49.3825 56.2838 49.1685 57.0371 48.7404C57.8076 48.2953 58.4068 47.6704 58.8348 46.8658C59.2799 46.0611 59.5025 45.1452 59.5025 44.1179C59.5025 43.0907 59.2799 42.1748 58.8348 41.3701C58.4068 40.5654 57.8076 39.9491 57.0371 39.5211C56.2838 39.076 55.4364 38.8534 54.4947 38.8534C53.536 38.8534 52.6714 39.076 51.901 39.5211C51.1477 39.9491 50.5485 40.5654 50.1034 41.3701C49.6753 42.1748 49.4613 43.0907 49.4613 44.1179C49.4613 45.1452 49.6753 46.0611 50.1034 46.8658C50.5485 47.6704 51.1477 48.2953 51.901 48.7404C52.6714 49.1685 53.536 49.3825 54.4947 49.3825Z" fill="#12181D"/>
</svg>
