<svg width="69" height="56" viewBox="0 0 69 56" fill="none" xmlns="http://www.w3.org/2000/svg">
<path d="M56.1436 3.35038C54.1968 1.39126 51.6056 0.215917 48.8578 0.0455513C46.1101 -0.124815 43.3952 0.721539 41.2242 2.42534C39.2418 0.875005 36.8028 0.0331948 34.2922 0.0327052C31.7817 0.0322155 29.3425 0.873076 27.3594 2.42263C25.0977 0.636314 22.2439 -0.213745 19.3806 0.0459975C16.5174 0.305739 13.8606 1.6557 11.9526 3.82026C10.0447 5.98484 9.0295 8.80077 9.11429 11.6932C9.19908 14.5856 10.3775 17.3365 12.4089 19.384L19.3464 26.368C19.3518 26.3733 19.3572 26.3783 19.3632 26.3837C19.3693 26.3892 19.371 26.3917 19.3748 26.3956C19.382 26.4028 19.3898 26.4094 19.397 26.4167C19.5073 26.5266 19.6192 26.6336 19.7328 26.7378C19.7913 26.7918 19.8504 26.844 19.9098 26.8965C19.9581 26.9388 20.0065 26.9807 20.0552 27.0221C22.0328 28.7088 24.5269 29.6592 27.1184 29.7132C29.71 29.7675 32.2411 28.9224 34.2867 27.3198C36.4577 29.0235 39.1726 29.8699 41.9202 29.6996C44.6681 29.5292 47.2592 28.3538 49.2061 26.3947L56.1438 19.4117C58.2567 17.2802 59.4432 14.3921 59.4432 11.381C59.4432 8.36996 58.2565 5.48189 56.1436 3.35038ZM34.29 2.9907C35.9395 2.98964 37.5522 3.48116 38.9239 4.40304C40.2958 5.32492 41.3649 6.63571 41.9963 8.16952C42.6277 9.70333 42.7928 11.3912 42.4707 13.0195C42.1486 14.6478 41.3539 16.1433 40.187 17.3167L34.29 23.2522L28.3929 17.3167C27.226 16.1433 26.4313 14.6478 26.1092 13.0195C25.7871 11.3911 25.9522 9.70327 26.5836 8.16946C27.2149 6.63563 28.2843 5.32484 29.656 4.40297C31.0279 3.48111 32.6406 2.9896 34.29 2.9907ZM19.0125 18.3643C19.0095 17.2615 19.2238 16.1691 19.6431 15.1502C20.0624 14.1314 20.6783 13.2064 21.4552 12.4287L23.0247 10.8489C22.9487 12.428 23.2019 14.0057 23.768 15.4804C24.334 16.955 25.2005 18.2942 26.3115 19.4117L32.0879 25.226C30.842 26.1044 29.3804 26.6217 27.8624 26.7214C26.3446 26.8212 24.8285 26.4997 23.4797 25.7918C22.1309 25.0838 21.001 24.017 20.2132 22.7071C19.4254 21.3974 19.0099 19.8949 19.0121 18.3638L19.0125 18.3643ZM14.4899 17.2888C13.0138 15.8034 12.1449 13.8148 12.0547 11.7159C11.9645 9.61692 12.6596 7.56021 14.0028 5.95208C15.3459 4.34394 17.2394 3.30129 19.3092 3.0301C21.379 2.75891 23.4746 3.27891 25.182 4.48736L19.3738 10.3336C18.3228 11.3857 17.4896 12.6373 16.9223 14.0157C16.3551 15.3942 16.0651 16.8723 16.0692 18.3643C16.0692 18.5404 16.0733 18.7159 16.0814 18.8908L14.4899 17.2888ZM41.2281 26.7583C39.5242 26.7624 37.8606 26.237 36.4644 25.254L42.2692 19.4117C43.3803 18.2942 44.2466 16.955 44.8126 15.4803C45.3787 14.0056 45.6319 12.428 45.556 10.8489L47.1256 12.4287C48.2919 13.6027 49.086 15.0984 49.4077 16.7268C49.7296 18.355 49.5644 20.0428 48.933 21.5767C48.3018 23.1105 47.2329 24.4214 45.8615 25.3438C44.4899 26.2661 42.8775 26.7583 41.2281 26.7583ZM54.0626 17.3167L52.4988 18.8908C52.5067 18.716 52.5107 18.5406 52.511 18.3643C52.5151 16.8723 52.2251 15.3942 51.6578 14.0157C51.0906 12.6372 50.2572 11.3857 49.2062 10.3336L43.4021 4.49125C45.1125 3.29321 47.2067 2.78315 49.2721 3.06147C51.3375 3.33978 53.2245 4.38633 54.5617 5.99503C55.8988 7.60373 56.5891 9.65802 56.4968 11.7534C56.4044 13.8489 55.5361 15.8335 54.0626 17.3167Z" fill="#025595"/>
<path d="M7.99589 37.4482C6.02089 37.4482 4.54443 37.8988 3.56651 38.8001C2.60777 39.6821 2.1284 40.9668 2.1284 42.6542V45.4729H11.735V47.3137H2.1284V55.8561H0V42.6254C0 40.4203 0.690293 38.6946 2.07088 37.4482C3.45146 36.1827 5.39771 35.5499 7.90961 35.5499C10.3448 35.5499 12.3006 36.0772 13.7771 37.1319L13.0005 38.8864C11.6966 37.9276 10.0284 37.4482 7.99589 37.4482Z" fill="#12181D"/>
<path d="M21.3002 55.9999C19.9388 55.9999 18.8842 55.6164 18.1364 54.8494C17.4077 54.0824 17.0434 53.0182 17.0434 51.6568V34.5145H19.0855V51.4842C19.0855 52.3854 19.2964 53.0757 19.7183 53.5551C20.1401 54.0153 20.7729 54.2454 21.6166 54.2454C22.1535 54.2454 22.6137 54.1591 22.9972 53.9865L23.141 55.6835C22.5466 55.8944 21.933 55.9999 21.3002 55.9999Z" fill="#12181D"/>
<path d="M31.8222 55.9999C30.3649 55.9999 29.0515 55.6739 27.8818 55.0219C26.7121 54.3508 25.7918 53.4304 25.1206 52.2608C24.4495 51.0911 24.114 49.7681 24.114 48.2916C24.114 46.8151 24.4495 45.4921 25.1206 44.3224C25.7918 43.1527 26.7121 42.2419 27.8818 41.59C29.0515 40.9381 30.3649 40.6121 31.8222 40.6121C33.2795 40.6121 34.593 40.9381 35.7626 41.59C36.9323 42.2419 37.8431 43.1527 38.4951 44.3224C39.1662 45.4921 39.5017 46.8151 39.5017 48.2916C39.5017 49.7681 39.1662 51.0911 38.4951 52.2608C37.8431 53.4304 36.9323 54.3508 35.7626 55.0219C34.593 55.6739 33.2795 55.9999 31.8222 55.9999ZM31.8222 54.1878C32.896 54.1878 33.8548 53.9482 34.6984 53.4688C35.5613 52.9702 36.2324 52.2704 36.7118 51.3691C37.1912 50.4679 37.4309 49.4421 37.4309 48.2916C37.4309 47.1411 37.1912 46.1153 36.7118 45.214C36.2324 44.3128 35.5613 43.6225 34.6984 43.1432C33.8548 42.6446 32.896 42.3953 31.8222 42.3953C30.7484 42.3953 29.7801 42.6446 28.9172 43.1432C28.0736 43.6225 27.4024 44.3128 26.9039 45.214C26.4245 46.1153 26.1848 47.1411 26.1848 48.2916C26.1848 49.4421 26.4245 50.4679 26.9039 51.3691C27.4024 52.2704 28.0736 52.9702 28.9172 53.4688C29.7801 53.9482 30.7484 54.1878 31.8222 54.1878Z" fill="#12181D"/>
<path d="M45.6267 43.6896C46.1061 42.6734 46.8156 41.9064 47.7551 41.3887C48.7139 40.8709 49.8931 40.6121 51.2929 40.6121V42.5967L50.8039 42.5679C49.2124 42.5679 47.9661 43.0569 47.0648 44.0348C46.1636 45.0127 45.713 46.3837 45.713 48.1478V55.8561H43.6709V40.7271H45.6267V43.6896Z" fill="#12181D"/>
<path d="M68.6558 40.7271V55.8561H66.7V52.8648C66.0864 53.881 65.2715 54.6576 64.2552 55.1945C63.2581 55.7314 62.1268 55.9999 60.8613 55.9999C59.4423 55.9999 58.1576 55.6739 57.0071 55.0219C55.8566 54.37 54.9554 53.4592 54.3035 52.2895C53.6515 51.1199 53.3256 49.7872 53.3256 48.2916C53.3256 46.796 53.6515 45.4633 54.3035 44.2936C54.9554 43.124 55.8566 42.2228 57.0071 41.59C58.1576 40.9381 59.4423 40.6121 60.8613 40.6121C62.0884 40.6121 63.191 40.8709 64.1689 41.3887C65.166 41.8872 65.9809 42.6254 66.6137 43.6034V40.7271H68.6558ZM61.0338 54.1878C62.0884 54.1878 63.0376 53.9482 63.8813 53.4688C64.7442 52.9702 65.4153 52.2704 65.8946 51.3691C66.3932 50.4679 66.6425 49.4421 66.6425 48.2916C66.6425 47.1411 66.3932 46.1153 65.8946 45.214C65.4153 44.3128 64.7442 43.6225 63.8813 43.1432C63.0376 42.6446 62.0884 42.3953 61.0338 42.3953C59.96 42.3953 58.9917 42.6446 58.1288 43.1432C57.2852 43.6225 56.614 44.3128 56.1155 45.214C55.6361 46.1153 55.3964 47.1411 55.3964 48.2916C55.3964 49.4421 55.6361 50.4679 56.1155 51.3691C56.614 52.2704 57.2852 52.9702 58.1288 53.4688C58.9917 53.9482 59.96 54.1878 61.0338 54.1878Z" fill="#12181D"/>
</svg>
