<svg width="30" height="30" viewBox="0 0 30 30" fill="none" xmlns="http://www.w3.org/2000/svg">
<path opacity="0.4" d="M15 27.375C21.9036 27.375 27.5 21.7786 27.5 14.875C27.5 7.97147 21.9036 2.37503 15 2.37503C8.09644 2.37503 2.5 7.97147 2.5 14.875C2.5 21.7786 8.09644 27.375 15 27.375Z" fill="#025595"/>
<path d="M17.8242 15L15.9367 14.3375V10.1H16.3867C17.3992 10.1 18.2242 10.9875 18.2242 12.075C18.2242 12.5875 18.6492 13.0125 19.1617 13.0125C19.6742 13.0125 20.0992 12.5875 20.0992 12.075C20.0992 9.95 18.4367 8.225 16.3867 8.225H15.9367V7.5C15.9367 6.9875 15.5117 6.5625 14.9992 6.5625C14.4867 6.5625 14.0617 6.9875 14.0617 7.5V8.225H13.2492C11.3992 8.225 9.88672 9.7875 9.88672 11.7C9.88672 13.9375 11.1867 14.65 12.1742 15L14.0617 15.6625V19.8875H13.6117C12.5992 19.8875 11.7742 19 11.7742 17.9125C11.7742 17.4 11.3492 16.975 10.8367 16.975C10.3242 16.975 9.89922 17.4 9.89922 17.9125C9.89922 20.0375 11.5617 21.7625 13.6117 21.7625H14.0617V22.5C14.0617 23.0125 14.4867 23.4375 14.9992 23.4375C15.5117 23.4375 15.9367 23.0125 15.9367 22.5V21.775H16.7492C18.5992 21.775 20.1117 20.2125 20.1117 18.3C20.0992 16.05 18.7992 15.3375 17.8242 15ZM12.7992 13.2375C12.1617 13.0125 11.7742 12.8 11.7742 11.7125C11.7742 10.825 12.4367 10.1125 13.2617 10.1125H14.0742V13.6875L12.7992 13.2375ZM16.7492 19.9H15.9367V16.325L17.1992 16.7625C17.8367 16.9875 18.2242 17.2 18.2242 18.2875C18.2242 19.175 17.5617 19.9 16.7492 19.9Z" fill="#025595"/>
</svg>
