<svg width="30" height="30" viewBox="0 0 30 30" fill="none" xmlns="http://www.w3.org/2000/svg">
<path d="M27.5 28.4375H2.5C1.9875 28.4375 1.5625 28.0125 1.5625 27.5C1.5625 26.9875 1.9875 26.5625 2.5 26.5625H27.5C28.0125 26.5625 28.4375 26.9875 28.4375 27.5C28.4375 28.0125 28.0125 28.4375 27.5 28.4375Z" fill="#025595"/>
<path opacity="0.4" d="M26.25 12.4749V27.4999H3.6875L3.75 12.4624C3.75 11.6999 4.1 10.975 4.7125 10.5L13.4625 3.69996C14.3625 2.98746 15.6375 2.98746 16.5375 3.69996L18.2125 4.99994L23.75 9.29994L25.2875 10.5C25.9 10.975 26.25 11.6999 26.25 12.4749Z" fill="#025595"/>
<path d="M16.25 21.25H13.75C12.7125 21.25 11.875 22.0875 11.875 23.125V27.5H18.125V23.125C18.125 22.0875 17.2875 21.25 16.25 21.25Z" fill="#025595"/>
<path d="M11.875 17.1875H9.375C8.6875 17.1875 8.125 16.625 8.125 15.9375V14.0625C8.125 13.375 8.6875 12.8125 9.375 12.8125H11.875C12.5625 12.8125 13.125 13.375 13.125 14.0625V15.9375C13.125 16.625 12.5625 17.1875 11.875 17.1875Z" fill="#025595"/>
<path d="M20.625 17.1875H18.125C17.4375 17.1875 16.875 16.625 16.875 15.9375V14.0625C16.875 13.375 17.4375 12.8125 18.125 12.8125H20.625C21.3125 12.8125 21.875 13.375 21.875 14.0625V15.9375C21.875 16.625 21.3125 17.1875 20.625 17.1875Z" fill="#025595"/>
<path d="M23.7504 9.3L18.2129 5H22.4754C23.1629 5 23.7254 5.54999 23.7254 6.23749L23.7504 9.3Z" fill="#025595"/>
</svg>
