<svg width="20" height="20" viewBox="0 0 20 20" fill="none" xmlns="http://www.w3.org/2000/svg">
<g clip-path="url(#clip0_133_567)">
<path d="M14.1337 13.4529C13.1755 13.4529 12.3121 13.8667 11.7129 14.525L6.32338 11.187C6.46727 10.8186 6.54708 10.4185 6.54708 9.99998C6.54708 9.58128 6.46727 9.1812 6.32338 8.813L11.7129 5.47484C12.3121 6.13311 13.1755 6.54708 14.1337 6.54708C15.9388 6.54708 17.4073 5.07857 17.4073 3.27346C17.4073 1.46835 15.9388 0 14.1337 0C12.3286 0 10.8601 1.4685 10.8601 3.27361C10.8601 3.69216 10.9401 4.09225 11.0838 4.46059L5.69442 7.7986C5.0952 7.14034 4.23186 6.72637 3.27361 6.72637C1.4685 6.72637 0 8.19502 0 9.99998C0 11.8051 1.4685 13.2736 3.27361 13.2736C4.23186 13.2736 5.0952 12.8598 5.69442 12.2014L11.0838 15.5394C10.9401 15.9077 10.8601 16.3078 10.8601 16.7265C10.8601 18.5315 12.3286 20 14.1337 20C15.9388 20 17.4073 18.5315 17.4073 16.7265C17.4073 14.9214 15.9388 13.4529 14.1337 13.4529ZM12.0538 3.27361C12.0538 2.12677 12.9869 1.19369 14.1337 1.19369C15.2806 1.19369 16.2137 2.12677 16.2137 3.27361C16.2137 4.42046 15.2806 5.35354 14.1337 5.35354C12.9869 5.35354 12.0538 4.42046 12.0538 3.27361ZM3.27361 12.0799C2.12661 12.0799 1.19354 11.1468 1.19354 9.99998C1.19354 8.85313 2.12661 7.92006 3.27361 7.92006C4.42046 7.92006 5.35338 8.85313 5.35338 9.99998C5.35338 11.1468 4.42046 12.0799 3.27361 12.0799ZM12.0538 16.7263C12.0538 15.5795 12.9869 14.6464 14.1337 14.6464C15.2806 14.6464 16.2137 15.5795 16.2137 16.7263C16.2137 17.8732 15.2806 18.8063 14.1337 18.8063C12.9869 18.8063 12.0538 17.8732 12.0538 16.7263Z" fill="#025595"/>
</g>
<defs>
<clipPath id="clip0_133_567">
<rect width="20" height="20" fill="white"/>
</clipPath>
</defs>
</svg>
